<svg width="18" height="27" viewBox="0 0 18 27" fill="none" xmlns="http://www.w3.org/2000/svg">
<path d="M0.0195847 6.37437C-0.086913 4.86543 0.247775 3.37907 1.13395 2.18356C1.90222 1.09977 2.90249 0.507881 4.10815 0.16198C5.12363 -0.139306 5.78922 0.229856 6.08208 1.35887C6.50045 3.04679 7.09758 4.73479 7.31437 6.51203C7.38283 7.29444 6.87699 8.40071 6.32931 8.97047C4.95632 10.3222 5.24157 11.3059 6.28369 13.3518C6.60697 14.0114 7.12043 15.1517 8.12071 16.6611C9.16282 18.1816 9.71431 18.9978 11.0531 18.3055C12.5402 17.5574 13.6241 18.0385 14.7461 19.2461C15.5068 20.1183 16.3435 20.8676 17.1042 21.7397C18.2034 23.0368 18.1539 23.9309 17.2944 24.847C15.7464 26.534 13.1906 27.0916 11.2889 25.9618C10.2392 25.3466 9.19327 24.5413 8.36034 23.6021C4.69011 19.4201 2.04298 14.5569 0.449368 9.06822C0.194543 8.14041 0.076637 7.20149 0.0195847 6.37437Z" fill="white"/>
</svg>
