<svg height="512pt" viewBox="-16 0 512 512" width="512pt" xmlns="http://www.w3.org/2000/svg"><path d="m270 249.789062v-19.320312c-13.691406 6.554688-28.835938 10.53125-45 10.53125s-31.308594-3.976562-45-10.53125v19.320312l45 45zm0 0"/><path d="m346.714844 41.03125 20.519531 56.378906 42.128906-15.328125 15.8125 43.449219c7.585938-3.472656 15.945313-5.53125 24.824219-5.53125 1.777344 0 3.453125.375 5.191406.527344l-17.714844-48.671875 42.523438-15.472657-20.523438-56.382812zm0 0"/><path d="m300 35.726562v-25.726562h-150v25.726562l75 37.5zm0 0"/><path d="m150 135c0 41.421875 33.578125 76 75 76s75-34.578125 75-76v-65.726562l-75 37.5-75-37.5zm0 0"/><path d="m420 271h-94.464844l-53.574218 150h88.039062v-90h60c33.136719 0 60-26.863281 60-60v-30h-60zm0 0"/><path d="m156.25 271 53.578125 150h30.34375l53.578125-150h-2.539062l-45 45 19.394531 19.394531-21.210938 21.210938-19.394531-19.394531-19.394531 19.394531-21.210938-21.210938 19.394531-19.394531-45-45zm0 0"/><path d="m98.789062 271-68.789062 38.789062v111.210938h60v-60h30v60h58.039062l-53.574218-150zm0 0"/><path d="m0 451h420v61h-420zm0 0"/><path d="m450 150c-16.570312 0-30 13.429688-30 30v31h60v-31c0-16.570312-13.429688-30-30-30zm0 0"/></svg>