<svg width="64" height="64" viewBox="0 0 64 64" fill="none" xmlns="http://www.w3.org/2000/svg">
<path d="M31.7226 49.9159C40.7875 49.9159 43.658 44.7288 43.658 40.3978C43.658 27.8579 23.5138 32.5918 23.5138 23.9802C23.5138 20.3542 26.8879 17.7858 31.37 17.7858C34.7575 17.7858 37.8614 18.839 40.2095 21.1633C40.6426 21.5921 41.3553 21.6112 41.7642 21.1593L42.3035 20.5631C42.6448 20.1859 42.6513 19.6096 42.2915 19.2499C39.7146 16.674 36.1776 15.1671 31.5211 15.1671C25.4275 15.1671 20.4921 18.6419 20.4921 24.1313C20.4921 35.8653 40.6364 30.7285 40.6364 40.5992C40.6364 43.4697 38.6723 47.2972 31.7729 47.2972C27.5329 47.2972 24.2818 45.4381 22.0896 43.2624C21.6554 42.8314 20.9387 42.8296 20.5397 43.2933L19.9833 43.9399C19.6662 44.3085 19.6572 44.8546 19.9888 45.2103C22.5859 47.9951 26.5649 49.9159 31.7226 49.9159Z" fill="#0049B7"/>
<path d="M30.1754 49.2624C30.1754 48.7101 30.6231 48.2624 31.1754 48.2624H32.3229C32.8752 48.2624 33.3229 48.7101 33.3229 49.2624V54.6067C33.3229 55.159 32.8752 55.6067 32.3229 55.6067H31.1754C30.6231 55.6067 30.1754 55.159 30.1754 54.6067V49.2624Z" fill="#0049B7"/>
<path d="M30.1754 9.39355C30.1754 8.84127 30.6231 8.39355 31.1754 8.39355H32.3229C32.8752 8.39355 33.3229 8.84127 33.3229 9.39355V15.7378C33.3229 16.2901 32.8752 16.7378 32.3229 16.7378H31.1754C30.6231 16.7378 30.1754 16.2901 30.1754 15.7378V9.39355Z" fill="#0049B7"/>
<circle cx="32" cy="32" r="31" stroke="#0049B7" stroke-width="2"/>
</svg>
