<svg width="75" height="64" viewBox="0 0 75 64" fill="none" xmlns="http://www.w3.org/2000/svg">
<rect x="27.794" y="47.7425" width="6.08828" height="9.82201" rx="3.04414" transform="rotate(45.4719 27.794 47.7425)" stroke="#0049B7" stroke-width="2"/>
<rect x="1.41397" y="25.043" width="33.7119" height="10.8972" rx="2" transform="rotate(-43.9415 1.41397 25.043)" stroke="#0049B7" stroke-width="2"/>
<path d="M42.0165 11.6074C42.862 10.725 44.2629 10.6951 45.1453 11.5407L62.8215 28.4781C63.704 29.3237 63.7339 30.7245 62.8883 31.607L48.7585 46.3531C47.9129 47.2356 46.5121 47.2655 45.6296 46.4199L27.9534 29.4825C27.0709 28.6369 27.041 27.2361 27.8866 26.3536L42.0165 11.6074Z" stroke="#0049B7" stroke-width="2"/>
<path d="M10.4567 32.2786C10.4393 32.1722 10.4355 32.0958 10.4366 32.044L31.7213 11.2027C32.7503 11.0727 35.2578 11.354 37.6903 14.0692C40.9526 18.523 44.4328 22.81 48.1173 26.9146L48.2034 27.0105L48.311 27.0814C48.4916 27.2005 48.6644 27.3402 48.8261 27.5009L62.1942 40.7842C63.5067 42.0883 63.5319 44.2343 62.2504 45.5688C61.4977 46.3527 60.466 46.6796 59.4787 46.5518L56.5526 46.1733L58.6455 48.2529L59.158 48.7621C60.7059 50.3002 60.7356 52.8301 59.2241 54.4041C57.8544 55.8306 55.691 55.9793 54.1561 54.8392L52.5184 53.6228L52.56 55.6624C52.5807 56.6725 52.2185 57.683 51.4761 58.4561C50.0141 59.9787 47.6223 60.0067 46.125 58.5189L45.7485 58.1449L44.3986 56.8035L44.0597 58.6761C43.9254 59.4181 43.5812 60.1258 43.0261 60.7038C41.5465 62.2447 39.1258 62.2731 37.6104 60.7674L27.6545 50.8747L27.645 50.8653L27.6353 50.8561C27.0214 50.2778 26.4047 49.6973 25.7902 49.1189L25.7882 49.117C20.2232 43.8787 14.9281 38.892 13.4699 37.1908C12.1487 35.6493 11.3041 34.3688 10.8466 33.4029C10.6175 32.9192 10.5004 32.5454 10.4567 32.2786ZM68.5753 30.238C67.7271 31.118 66.3262 31.1437 65.4462 30.2955L43.3613 9.00704C42.4813 8.15884 42.4556 6.75791 43.3038 5.87798L47.3531 1.67716C48.2013 0.797223 49.6022 0.771497 50.4822 1.6197L72.5671 22.9082C73.4471 23.7564 73.4728 25.1573 72.6246 26.0372L68.5753 30.238Z" fill="#F9F9FC" stroke="#0049B7" stroke-width="2"/>
<rect x="17.8526" y="36.1144" width="6.08828" height="9.82201" rx="3.04414" transform="rotate(45.4719 17.8526 36.1144)" fill="white" stroke="#0049B7" stroke-width="2"/>
<rect x="22.3721" y="42.3199" width="6.08828" height="9.82201" rx="3.04414" transform="rotate(45.4719 22.3721 42.3199)" fill="white" stroke="#0049B7" stroke-width="2"/>
<rect x="27.794" y="47.7425" width="6.08828" height="9.82201" rx="3.04414" transform="rotate(45.4719 27.794 47.7425)" fill="white" stroke="#0049B7" stroke-width="2"/>
<rect x="34.1212" y="51.3578" width="6.08828" height="9.82201" rx="3.04414" transform="rotate(45.4719 34.1212 51.3578)" fill="white" stroke="#0049B7" stroke-width="2"/>
<path d="M58.3727 47.7696L47.5947 38.1892" stroke="#0049B7" stroke-width="2"/>
<path d="M54.7802 54.955L42.8047 44.177" stroke="#0049B7" stroke-width="2"/>
<path d="M45.9321 58.5108L35.9531 48.136" stroke="#0049B7" stroke-width="2"/>
<path d="M37.942 16.0832C38.1841 15.8337 38.448 15.6198 38.7277 15.4412L44.6859 22.8889L36.6427 31.1797C34.968 32.906 32.211 32.9479 30.4847 31.2731L29.7884 31.9909L30.4847 31.2731L29.8607 30.6678C28.1344 28.9931 28.0926 26.236 29.7673 24.5097L37.942 16.0832Z" fill="white" stroke="#0049B7" stroke-width="2"/>
<path d="M36.123 19.5543L40.3067 15.0488C41.6842 13.5653 44.1054 13.8441 45.1098 15.6017L47.3684 19.5543L41.478 24.3737L36.123 19.5543Z" fill="white"/>
</svg>
