<svg width="18" height="18" viewBox="0 0 18 18" fill="none" xmlns="http://www.w3.org/2000/svg">
<path fill-rule="evenodd" clip-rule="evenodd" d="M8.75 0C3.90914 0 0 3.90914 0 8.75C0 13.5909 3.90914 17.5 8.75 17.5C13.5909 17.5 17.5 13.5909 17.5 8.75C17.5 3.90914 13.5909 0 8.75 0Z" fill="#005FED"/>
<path d="M8.37882 10.8875L9.65517 10.4688C9.53808 10.3511 9.4444 10.1287 9.4444 9.91943C9.4444 8.82059 11.3999 8.6767 11.3999 6.76681C11.3999 5.55024 10.4748 4.69995 8.96431 4.69995C7.95728 4.69995 7.02051 5.1578 6.3999 5.96885L7.34838 7.15925C7.71138 6.67524 8.20318 6.34821 8.78866 6.34821C9.43269 6.34821 9.70201 6.68832 9.70201 7.09385C9.70201 7.99646 7.99241 8.1796 7.99241 9.73629C7.99241 10.1941 8.13292 10.5866 8.37882 10.8875ZM8.94089 13.7C9.45611 13.7 9.88936 13.2159 9.88936 12.6404C9.88936 12.0648 9.45611 11.5808 8.94089 11.5808C8.42566 11.5808 7.99241 12.0648 7.99241 12.6404C7.99241 13.2159 8.42566 13.7 8.94089 13.7Z" fill="white"/>
</svg>
