<svg width="17" height="26" viewBox="0 0 17 26" fill="none" xmlns="http://www.w3.org/2000/svg">
<path d="M1.05795 7.43048C1.09023 6.11551 1.50302 4.79167 2.36976 3.68684C3.12509 2.68752 4.04089 2.10405 5.11438 1.72275C6.01937 1.39288 6.56575 1.67307 6.72636 2.64311C6.94961 4.09462 7.32778 5.5346 7.36894 7.07744C7.36368 7.75842 6.83394 8.7604 6.31223 9.29508C5.01066 10.5684 5.17668 11.4116 5.91097 13.1362C6.1367 13.6931 6.48757 14.6587 7.22989 15.916C8.00755 17.1804 8.41814 17.8596 9.6356 17.1662C10.9862 16.4142 11.886 16.7654 12.7587 17.7504C13.3459 18.4651 14.0093 19.0672 14.5965 19.7818C15.4421 20.8467 15.3254 21.6332 14.5048 22.4916C13.0239 24.0699 10.7628 24.7243 9.20789 23.8581C8.3489 23.3872 7.50889 22.7497 6.86454 21.981C4.02883 18.5557 2.13608 14.4672 1.20804 9.76248C1.06379 8.96623 1.03912 8.15136 1.05795 7.43048Z" stroke="#0049B7" stroke-width="2" stroke-miterlimit="10"/>
</svg>
