<svg width="19" height="26" viewBox="0 0 19 26" fill="none" xmlns="http://www.w3.org/2000/svg">
<path opacity="0.3" d="M1.88557 6.79843C1.79051 5.45154 2.08925 4.12479 2.88026 3.05768C3.56603 2.09027 4.45888 1.56194 5.53506 1.25319C6.4415 0.984259 7.0356 1.31378 7.29701 2.32154C7.67045 3.8282 8.20346 5.33493 8.39697 6.92131C8.45808 7.6197 8.00656 8.60717 7.5177 9.11574C6.29215 10.3223 6.54677 11.2004 7.47697 13.0266C7.76554 13.6153 8.22385 14.6332 9.11671 15.9804C10.0469 17.3377 10.5392 18.0662 11.7342 17.4483C13.0616 16.7805 14.0291 17.2099 15.0306 18.2879C15.7096 19.0664 16.4565 19.7352 17.1355 20.5137C18.1166 21.6715 18.0725 22.4696 17.3052 23.2873C15.9235 24.7931 13.6421 25.2908 11.9447 24.2824C11.0077 23.7332 10.0741 23.0144 9.33061 22.176C6.05453 18.4432 3.69167 14.1022 2.2692 9.20299C2.04174 8.37482 1.9365 7.53673 1.88557 6.79843Z" stroke="#48494D" stroke-width="2" stroke-miterlimit="10"/>
</svg>
