<svg width="21" height="21" viewBox="0 0 21 21" fill="none" xmlns="http://www.w3.org/2000/svg">
<circle cx="10.5" cy="10.5" r="10.5" fill="#D7D9DF"/>
<path d="M9.704 12.568L11.448 12.056C11.288 11.912 11.16 11.64 11.16 11.384C11.16 10.04 13.832 9.864 13.832 7.528C13.832 6.04 12.568 5 10.504 5C9.128 5 7.848 5.56 7 6.552L8.296 8.008C8.792 7.416 9.464 7.016 10.264 7.016C11.144 7.016 11.512 7.432 11.512 7.928C11.512 9.032 9.176 9.256 9.176 11.16C9.176 11.72 9.368 12.2 9.704 12.568ZM10.472 16.008C11.176 16.008 11.768 15.416 11.768 14.712C11.768 14.008 11.176 13.416 10.472 13.416C9.768 13.416 9.176 14.008 9.176 14.712C9.176 15.416 9.768 16.008 10.472 16.008Z" fill="white"/>
</svg>
