<svg width="11" height="12" viewBox="0 0 11 12" fill="none" xmlns="http://www.w3.org/2000/svg">
<path d="M5.96875 9.85156H3.35156V12H1.85938V9.85156H0.242188V8.61719H1.85938V7.54688H0.242188V6.32031H1.85938V0.625H6.05469C7.27344 0.625 8.23958 0.934896 8.95312 1.55469C9.66667 2.17448 10.0234 3.01302 10.0234 4.07031C10.0234 5.17969 9.67969 6.03646 8.99219 6.64062C8.3099 7.23958 7.33854 7.54167 6.07812 7.54688H3.35156V8.61719H5.96875V9.85156ZM3.35156 6.32031H6.05469C6.86198 6.32031 7.47656 6.13021 7.89844 5.75C8.32031 5.36979 8.53125 4.8151 8.53125 4.08594C8.53125 3.42448 8.3125 2.89062 7.875 2.48438C7.4375 2.07292 6.84635 1.86458 6.10156 1.85938H3.35156V6.32031Z" fill="#7B7C7F" fill-opacity="0.3"/>
</svg>
