<svg width="17" height="25" viewBox="0 0 17 25" fill="none" xmlns="http://www.w3.org/2000/svg">
<path d="M8.5 22.5217L7.71462 23.1408L8.5 24.1372L9.28538 23.1408L8.5 22.5217ZM15 8.73438C15 9.56762 14.6166 10.7931 13.9235 12.2646C13.2465 13.7019 12.3347 15.2508 11.4091 16.6886C10.4858 18.1231 9.56066 19.4288 8.86546 20.3768C8.51821 20.8503 8.22917 21.2335 8.02751 21.4976C7.9267 21.6296 7.84778 21.7318 7.7944 21.8005C7.76772 21.8349 7.74742 21.8609 7.73397 21.8781C7.72724 21.8867 7.72223 21.893 7.71899 21.8972C7.71736 21.8992 7.71618 21.9007 7.71545 21.9017C7.71509 21.9021 7.71484 21.9025 7.7147 21.9026C7.71463 21.9027 7.71461 21.9027 7.71457 21.9028C7.71458 21.9028 7.71462 21.9027 8.5 22.5217C9.28538 23.1408 9.28548 23.1406 9.2856 23.1405C9.28568 23.1404 9.28583 23.1402 9.28599 23.14C9.28631 23.1396 9.28674 23.139 9.28728 23.1383C9.28837 23.137 9.2899 23.135 9.29189 23.1325C9.29585 23.1274 9.3016 23.1201 9.30906 23.1106C9.32399 23.0915 9.34581 23.0635 9.37405 23.0272C9.43054 22.9544 9.51275 22.848 9.61702 22.7115C9.82551 22.4384 10.1224 22.0448 10.4783 21.5595C11.1893 20.5899 12.1392 19.2496 13.0909 17.7712C14.0403 16.2962 15.0035 14.6652 15.7328 13.1168C16.4459 11.6028 17 10.0369 17 8.73438H15ZM8.5 2C12.0611 2 15 4.98585 15 8.73438H17C17 3.93974 13.2232 0 8.5 0V2ZM2 8.73438C2 4.98585 4.93893 2 8.5 2V0C3.7768 0 0 3.93974 0 8.73438H2ZM8.5 22.5217C9.28538 21.9027 9.28542 21.9028 9.28543 21.9028C9.28539 21.9027 9.28538 21.9027 9.28531 21.9026C9.28517 21.9025 9.28491 21.9021 9.28455 21.9017C9.28382 21.9007 9.28264 21.8992 9.28102 21.8972C9.27777 21.893 9.27276 21.8867 9.26603 21.8781C9.25258 21.8609 9.23228 21.8349 9.2056 21.8005C9.15222 21.7318 9.0733 21.6296 8.97249 21.4976C8.77083 21.2335 8.48179 20.8503 8.13454 20.3768C7.43934 19.4288 6.51421 18.1231 5.59086 16.6886C4.6653 15.2508 3.75351 13.7019 3.07655 12.2646C2.38343 10.7931 2 9.56762 2 8.73438H0C0 10.0369 0.554075 11.6028 1.2672 13.1168C1.99649 14.6652 2.9597 16.2962 3.90914 17.7712C4.86079 19.2496 5.81066 20.5899 6.52171 21.5595C6.87758 22.0448 7.17449 22.4384 7.38298 22.7115C7.48725 22.848 7.56946 22.9544 7.62595 23.0272C7.65419 23.0635 7.67601 23.0915 7.69094 23.1106C7.6984 23.1201 7.70415 23.1274 7.70811 23.1325C7.7101 23.135 7.71163 23.137 7.71272 23.1383C7.71326 23.139 7.71369 23.1396 7.71401 23.14C7.71417 23.1402 7.71432 23.1404 7.7144 23.1405C7.71452 23.1406 7.71462 23.1408 8.5 22.5217ZM11.0869 8.73439C11.0869 10.2543 9.89987 11.4334 8.49992 11.4334V13.4334C11.062 13.4334 13.0869 11.3004 13.0869 8.73439H11.0869ZM8.49992 6.03534C9.89987 6.03534 11.0869 7.21452 11.0869 8.73439H13.0869C13.0869 6.1684 11.062 4.03534 8.49992 4.03534V6.03534ZM5.91296 8.73439C5.91296 7.21452 7.09997 6.03534 8.49992 6.03534V4.03534C5.93783 4.03534 3.91296 6.1684 3.91296 8.73439H5.91296ZM8.49992 11.4334C7.09997 11.4334 5.91296 10.2543 5.91296 8.73439H3.91296C3.91296 11.3004 5.93783 13.4334 8.49992 13.4334V11.4334Z" fill="#0049B7"/>
</svg>
