<svg width="82" height="54" viewBox="0 0 82 54" fill="none" xmlns="http://www.w3.org/2000/svg">
<path d="M19 12L39 12" stroke="#0049B7" stroke-width="1.3"/>
<path d="M23 8H32.5" stroke="#0049B7" stroke-width="1.3"/>
<path d="M25 36H46" stroke="#0049B7" stroke-width="2"/>
<path d="M75 24.5C75 23.4087 73.8006 21.0706 72.3005 19.4429C72.1152 19.2418 72.2544 18.898 72.5279 18.8972C80.5845 18.8728 80.3763 18.4428 81 16.8644V11.9831C81 10.7627 80.5817 9.743 79.3925 9.54237C76.9813 9.13559 73.3645 9 71.757 9.54237C70.5514 9.94915 69.5065 10.8441 68.5421 12.7966C67.6044 10.2203 65.3271 5.47458 64.1215 3.84746C62.9159 2.22034 62.1121 1.40678 58.8972 1H58.4953H38" stroke="#0049B7" stroke-width="2"/>
<path d="M44.1754 1H23.5965H23.193C19.9649 1.40367 19.1579 2.21101 17.9474 3.82569C16.7368 5.44037 14.4503 10.1498 13.5088 12.7064C12.5403 10.7688 11.4912 9.88073 10.2807 9.47706C8.66667 8.93884 5.03509 9.07339 2.61403 9.47706C1.41998 9.67615 0.999999 10.6881 0.999999 11.8991V16.7431C1.62293 18.3011 1.41943 18.7316 9.37822 18.7599C9.66649 18.761 9.79657 19.135 9.57528 19.3198C7.36691 21.1635 5.8421 23.3908 5.8421 25.2202V40.5596C5.7076 42.0398 6.16491 45 9.07017 45C11.9754 45 35.5673 45 47 45" stroke="#0049B7" stroke-width="2"/>
<path fill-rule="evenodd" clip-rule="evenodd" d="M7.48043 44.7998C7.42794 45.0583 7.40039 45.3259 7.40039 45.5999V48.8C7.40039 51.0091 9.19125 52.8 11.4004 52.8H21.0004C23.2095 52.8 25.0004 51.0091 25.0004 48.8V45.6C25.0004 45.3259 24.9728 45.0583 24.9203 44.7998H22.8339C22.941 45.0448 23.0004 45.3155 23.0004 45.6V48.8C23.0004 49.9045 22.105 50.8 21.0004 50.8H11.4004C10.2958 50.8 9.40039 49.9045 9.40039 48.8V45.5999C9.40039 45.3155 9.45979 45.0448 9.56687 44.7998H7.48043Z" fill="#0049B7"/>
<path d="M13.5008 12C12.9697 13.8667 12.9469 18 18.3639 18C23.781 18 50.8922 18 63.7707 18C65.4968 18 69.195 16.7 68 11.5" stroke="#0049B7" stroke-width="2"/>
<path d="M12 24C12.2619 25.3333 13.4929 28 16.3214 28C19.15 28 21.9524 28 23 28" stroke="#0049B7" stroke-width="2"/>
<circle cx="65" cy="38" r="9" stroke="#0049B7" stroke-width="2"/>
<path d="M71.5 45L78 52.5" stroke="#0049B7" stroke-width="2"/>
</svg>