<svg width="85" height="35" viewBox="0 0 85 35" fill="none" xmlns="http://www.w3.org/2000/svg">
<path fill-rule="evenodd" clip-rule="evenodd" d="M29.1494 32.0702L28.3851 31.3636C28.3318 31.2979 28.2251 31.2979 28.154 31.3472H28.1363C27.923 31.5115 27.6386 31.5937 27.3364 31.5937C26.6076 31.5937 26.0211 31.0515 26.0211 30.3942C26.0211 29.737 26.6076 29.1948 27.3364 29.1948C27.6386 29.1948 27.9052 29.2933 28.1363 29.4412C28.1363 29.4412 28.154 29.4412 28.154 29.4577C28.2251 29.5069 28.314 29.5069 28.3851 29.4412L29.1494 28.7347V28.7183C29.2205 28.6525 29.2205 28.5539 29.1494 28.4882L29.1317 28.4718C28.6517 28.0939 28.0118 27.8474 27.3364 27.8474C25.8078 27.8474 24.5813 28.9812 24.5813 30.3942C24.5813 31.7909 25.8078 32.941 27.3364 32.941C28.0118 32.941 28.6517 32.6946 29.1317 32.3166L29.1494 32.3002C29.2205 32.2509 29.2205 32.1359 29.1494 32.0702Z" fill="#0029A6"/>
<path fill-rule="evenodd" clip-rule="evenodd" d="M37.3255 29.9177C37.361 29.6384 37.4499 29.4084 37.6276 29.2276C37.8054 29.0469 38.0187 28.9483 38.3031 28.9483C38.4808 28.9483 38.623 28.9811 38.7474 29.0304C38.8541 29.0797 38.943 29.1455 39.0141 29.2276C39.0852 29.3098 39.1207 29.4084 39.1563 29.5234C39.1918 29.6384 39.1918 29.7698 39.1918 29.9013H37.3255V29.9177ZM40.4005 30.6078C40.5249 30.4928 40.596 30.2792 40.596 29.9506C40.596 29.2769 40.4005 28.7675 40.0094 28.3896C39.6184 28.0282 39.0318 27.8474 38.2497 27.8474C37.8765 27.8474 37.5388 27.9131 37.2366 28.0117C36.9344 28.1267 36.6678 28.2911 36.4545 28.5211C36.2412 28.7347 36.0634 29.014 35.9568 29.3262C35.8324 29.6384 35.7791 29.9999 35.7791 30.4107C35.7791 31.2815 35.9923 31.9059 36.4012 32.3166C36.81 32.711 37.4677 32.9246 38.3386 32.9246C38.623 32.9246 38.9252 32.8917 39.2451 32.826C39.5651 32.7603 39.8495 32.6617 40.0983 32.4974C40.0983 32.4974 40.1339 32.4645 40.1516 32.4645C40.205 32.4152 40.205 32.3495 40.1872 32.2838L39.8672 31.643V31.6265C39.8495 31.6101 39.8495 31.5937 39.8317 31.5772C39.7961 31.5444 39.7251 31.5115 39.6717 31.528C39.654 31.528 39.6184 31.5444 39.6006 31.5444C39.4229 31.6101 39.2451 31.6758 39.0318 31.7087C38.8363 31.758 38.6408 31.7744 38.4453 31.7744C38.2853 31.7744 38.1253 31.758 37.9831 31.7251C37.8587 31.6923 37.7165 31.643 37.6099 31.5608C37.5032 31.4787 37.4143 31.3801 37.361 31.2486C37.3077 31.1172 37.2544 30.9529 37.2544 30.7557H39.8139C40.0983 30.7886 40.2761 30.7228 40.4005 30.6078Z" fill="#0029A6"/>
<path fill-rule="evenodd" clip-rule="evenodd" d="M5.52797 26.5325V26.516C5.52797 26.4832 5.51019 26.4503 5.47464 26.4175C5.43909 26.3846 5.40354 26.3682 5.35022 26.3682H5.33245H0.195523H0.177748C0.142199 26.3682 0.106648 26.3846 0.0533236 26.4175C0.017774 26.4503 0 26.4832 0 26.516V26.5325V26.5489V27.3705C0 27.3869 -2.71487e-07 27.4197 0.0177745 27.4362C0.0355494 27.469 0.0355485 27.4855 0.0710982 27.5019C0.106648 27.5348 0.124424 27.5512 0.177748 27.5512C0.177748 27.5512 0.195522 27.5512 0.213297 27.5512H1.99078V32.6448C1.99078 32.6612 1.99078 32.6612 1.99078 32.6777C1.99078 32.7105 2.00855 32.7434 2.02633 32.7598C2.0441 32.7763 2.07965 32.7927 2.1152 32.8091C2.13298 32.8091 2.16853 32.8091 2.1863 32.8091H3.32389H3.34166C3.37721 32.8091 3.41276 32.7927 3.44831 32.7598C3.48386 32.727 3.50164 32.6941 3.50164 32.6448V32.6284V27.5348H5.31467C5.33244 27.5348 5.35022 27.5348 5.35022 27.5348C5.38577 27.5348 5.42132 27.5183 5.45687 27.4855C5.47464 27.469 5.49242 27.4526 5.49242 27.4197C5.49242 27.4033 5.51019 27.3705 5.51019 27.354V26.5325H5.52797Z" fill="#0029A6"/>
<path fill-rule="evenodd" clip-rule="evenodd" d="M23.4095 28.144C23.4095 28.1112 23.3918 28.0619 23.3562 28.029C23.3207 27.9962 23.2851 27.9797 23.2496 27.9797H23.2318H23.1963H22.1475C22.1475 27.9797 22.0942 27.9797 22.0764 27.9797C22.0409 27.9797 22.0231 27.9962 22.0053 28.029C21.9698 28.0619 21.952 28.0783 21.952 28.1276C21.9342 28.144 21.9342 28.144 21.9342 28.1605V28.867V29.7543H20.0679V28.1605C20.0679 28.1276 20.0501 28.0783 20.0146 28.0455C19.979 28.0126 19.9435 27.9962 19.9079 27.9962H19.8724H19.8546H18.8059C18.8059 27.9962 18.7525 27.9962 18.7348 27.9962C18.6992 27.9962 18.6815 28.0126 18.6637 28.0455C18.6459 28.0783 18.6104 28.0948 18.6104 28.144C18.6104 28.1605 18.6104 28.1605 18.6104 28.1769V32.679C18.6104 32.6954 18.6104 32.6954 18.6104 32.7119C18.6104 32.7447 18.6281 32.7776 18.6637 32.794C18.6815 32.8269 18.717 32.8269 18.7348 32.8433C18.7525 32.8433 18.8059 32.8598 18.8059 32.8598H19.8546H19.8724H19.9079C19.9435 32.8598 19.979 32.8433 20.0146 32.8105C20.0501 32.7776 20.0679 32.7447 20.0679 32.6954V30.8223H21.9342V32.6954C21.9342 32.7119 21.9342 32.7119 21.952 32.7283C21.952 32.7612 21.9698 32.794 22.0053 32.8105C22.0231 32.8433 22.0409 32.8433 22.0764 32.8598C22.0942 32.8598 22.1298 32.8762 22.1475 32.8762H23.1963H23.2318H23.2496C23.2851 32.8762 23.3384 32.8597 23.3562 32.8269C23.3918 32.794 23.4095 32.7612 23.4095 32.7119V32.6954V28.144Z" fill="#0029A6"/>
<path fill-rule="evenodd" clip-rule="evenodd" d="M35.5875 26.5327C35.5875 26.5163 35.5875 26.5163 35.5875 26.5163C35.5875 26.4834 35.552 26.4506 35.5342 26.4177C35.4987 26.3848 35.4631 26.3684 35.4098 26.3684H35.392H30.2551H30.2373C30.184 26.3684 30.1484 26.3848 30.1129 26.4177C30.0773 26.4506 30.0596 26.4834 30.0596 26.5163V26.5327V26.5492V27.3707C30.0596 27.3871 30.0596 27.42 30.0773 27.4364C30.0951 27.4693 30.0951 27.4857 30.1129 27.5021C30.1484 27.535 30.184 27.5514 30.2195 27.5514C30.2373 27.5514 30.2373 27.5514 30.2551 27.5514H32.0148V32.6451C32.0148 32.6615 32.0148 32.6615 32.0148 32.6779C32.0326 32.7108 32.0326 32.7436 32.0681 32.7601C32.0859 32.7765 32.1037 32.7929 32.1392 32.8094C32.157 32.8094 32.2103 32.8094 32.2103 32.8094H33.3479H33.3657H33.3835C33.419 32.8094 33.4546 32.7929 33.4901 32.7601C33.5257 32.7272 33.5434 32.6943 33.5434 32.6451V32.6286V27.535H35.3565C35.3742 27.535 35.3742 27.535 35.392 27.535C35.4276 27.535 35.4631 27.5186 35.4809 27.4857C35.4987 27.4693 35.5164 27.4529 35.5342 27.42C35.5342 27.4036 35.552 27.3707 35.552 27.3543V26.5327H35.5875Z" fill="#0029A6"/>
<path fill-rule="evenodd" clip-rule="evenodd" d="M9.36817 31.4454C9.15487 31.659 8.88825 31.7576 8.55052 31.7576C8.44388 31.7576 8.31945 31.7576 8.17725 31.7412C8.03505 31.7247 7.87508 31.7083 7.71511 31.659V29.1286C7.82175 29.0958 7.96395 29.0794 8.10615 29.0629C8.24835 29.0465 8.37278 29.0301 8.47942 29.0301C8.67495 29.0301 8.83492 29.0465 8.9949 29.0958C9.13709 29.1451 9.26152 29.2108 9.38594 29.3258C9.49259 29.4244 9.56369 29.5723 9.61702 29.7366C9.67034 29.9009 9.70589 30.1145 9.70589 30.3774C9.68812 30.8868 9.58147 31.2482 9.36817 31.4454ZM11.0746 29.408C10.9857 29.0958 10.8435 28.8329 10.648 28.6193C10.4524 28.3892 10.1858 28.2085 9.84809 28.0771C9.52814 27.9456 9.13709 27.8799 8.65717 27.8799C8.30168 27.8799 7.9284 27.9127 7.51958 27.962C7.19964 28.0113 6.89746 28.0935 6.61307 28.1921H6.59529C6.39977 28.2742 6.25757 28.455 6.25757 28.6686V34.5345V34.5673C6.25757 34.6002 6.27534 34.633 6.31089 34.6495C6.32867 34.6659 6.34644 34.6823 6.38199 34.6988C6.39977 34.6988 6.43532 34.6988 6.45309 34.6988H7.50181H7.51958H7.53736C7.57291 34.6988 7.60846 34.6823 7.64401 34.6495C7.67956 34.6166 7.69733 34.5837 7.69733 34.5345V34.518V32.7763C7.91063 32.8256 8.10615 32.8421 8.26613 32.8585C8.44388 32.8749 8.62162 32.8913 8.81715 32.8913C9.22597 32.8913 9.58147 32.8256 9.88364 32.6942C10.168 32.5627 10.4169 32.382 10.6124 32.152C10.8079 31.9219 10.9501 31.659 11.0568 31.3468C11.1457 31.0511 11.199 30.7225 11.199 30.3774C11.199 30.0488 11.1457 29.7202 11.0746 29.408Z" fill="#0029A6"/>
<path fill-rule="evenodd" clip-rule="evenodd" d="M77.6392 27.9797H77.1592C77.0704 27.9797 76.9993 27.9797 76.9459 27.9962C76.8926 28.0126 76.8393 28.029 76.786 28.0455C76.7504 28.0619 76.6971 28.0948 76.6615 28.144C76.626 28.1933 76.5904 28.2426 76.5371 28.2919C76.3238 28.637 76.1283 28.9163 75.9683 29.1463C75.8084 29.3928 75.6661 29.6064 75.5417 29.7707C75.5062 29.8364 75.4706 29.8857 75.4351 29.9515C75.3995 30.0008 75.3462 30.0665 75.2929 30.1651C75.2396 30.2472 75.1685 30.3458 75.0796 30.4773C74.9907 30.6087 74.8841 30.773 74.7596 30.9538H74.7063V28.1605V28.144C74.7063 28.1112 74.6885 28.0783 74.653 28.0455C74.6174 28.0126 74.5641 27.9962 74.5286 27.9962H73.4265C73.391 27.9962 73.3377 28.0126 73.3021 28.0455C73.2666 28.0783 73.2488 28.1112 73.2488 28.1605V32.3175C73.2488 32.6133 73.4976 32.8433 73.8176 32.8433H74.2797C74.4397 32.8433 74.5641 32.8269 74.6352 32.794C74.7063 32.7612 74.7952 32.679 74.9018 32.5476C75.0618 32.3175 75.204 32.1039 75.3818 31.8739C75.524 31.6439 75.6839 31.4303 75.8439 31.2002C75.9861 30.9866 76.1283 30.773 76.2705 30.5594C76.3949 30.3458 76.5549 30.1322 76.7149 29.9186H76.7682V32.6626V32.679C76.7682 32.7119 76.786 32.7612 76.8215 32.794C76.8571 32.8269 76.8926 32.8433 76.9459 32.8433H76.9637H78.048C78.1013 32.8433 78.1368 32.8269 78.1724 32.794C78.2079 32.7612 78.2257 32.7283 78.2257 32.679V28.5055C78.2079 28.2262 77.9591 27.9797 77.6392 27.9797Z" fill="#0029A6"/>
<path fill-rule="evenodd" clip-rule="evenodd" d="M70.3703 31.4138C70.3526 31.4795 70.317 31.5288 70.2637 31.5946C70.2104 31.6439 70.157 31.6932 70.0682 31.726C69.9793 31.7589 69.8726 31.7753 69.7482 31.7753H68.4862V30.7073H69.7482C69.9615 30.7073 70.1215 30.7566 70.2281 30.8552C70.3348 30.9538 70.3881 31.0852 70.3881 31.2495C70.3881 31.2988 70.3881 31.3645 70.3703 31.4138ZM68.4862 29.0149H69.7127C69.8549 29.0149 69.9437 29.0642 70.0326 29.1299C70.1037 29.2121 70.1393 29.2942 70.1393 29.4092C70.1393 29.5571 70.1037 29.6557 69.9971 29.7214C69.8904 29.7872 69.8015 29.82 69.6949 29.82H68.4862V29.0149ZM71.7212 30.6744C71.5968 30.4608 71.3835 30.2965 71.0813 30.1815V30.1322C71.2769 30.0336 71.4191 29.9022 71.5257 29.7379C71.6323 29.5571 71.6679 29.3928 71.6679 29.2121C71.6679 28.9985 71.6323 28.8013 71.5435 28.637C71.4546 28.4727 71.3302 28.3577 71.1702 28.2591C71.0102 28.1605 70.8325 28.0783 70.6192 28.0455C70.4059 27.9962 70.1926 27.9797 69.9615 27.9797H67.633C67.3308 27.9797 67.0642 28.2098 67.0642 28.5055V32.3011C67.0642 32.5804 67.3131 32.8105 67.5975 32.8269H67.633H67.6508H67.6686H69.9793C70.2637 32.8269 70.5125 32.794 70.7614 32.7119C70.9925 32.6462 71.188 32.5311 71.3657 32.3997C71.5435 32.2682 71.6679 32.1204 71.7568 31.9232C71.8634 31.7424 71.9167 31.5288 71.9167 31.3152C71.899 31.1181 71.8279 30.888 71.7212 30.6744Z" fill="#0029A6"/>
<path fill-rule="evenodd" clip-rule="evenodd" d="M46.4103 32.5804L44.7573 30.2472L46.2148 28.2426V28.2262C46.2681 28.1605 46.2503 28.0783 46.197 28.029C46.1615 27.9962 46.1259 27.9797 46.0726 27.9797H45.1127H45.095C44.8817 27.9797 44.7039 28.0948 44.615 28.2591L43.9574 29.3599L43.3353 28.2919L43.3175 28.2591C43.2108 28.1112 43.0331 27.9962 42.8376 27.9962H42.7843H41.8244C41.7711 27.9962 41.7355 28.0126 41.7 28.0455C41.6289 28.1112 41.6289 28.1769 41.6644 28.2426L43.1042 30.2801L41.4511 32.5804C41.3978 32.6461 41.4156 32.7283 41.4689 32.7776C41.5045 32.8105 41.54 32.8269 41.5756 32.8269H41.6111H42.5354C42.5532 32.8269 42.571 32.8269 42.571 32.8269C42.7487 32.8269 42.9264 32.7283 43.0331 32.5804L43.9041 31.2002L44.7395 32.5804C44.8283 32.7283 45.0061 32.8269 45.2194 32.8269H46.197C46.3037 32.8269 46.3748 32.7612 46.3748 32.6626C46.4281 32.6461 46.4103 32.6133 46.4103 32.5804Z" fill="#0029A6"/>
<path fill-rule="evenodd" clip-rule="evenodd" d="M83.9864 32.0702L83.222 31.3636C83.1509 31.2979 83.0621 31.2979 82.991 31.3472C82.7599 31.5115 82.4933 31.5937 82.1911 31.5937C81.4801 31.5937 80.8936 31.0515 80.8936 30.3942C80.8936 29.737 81.4801 29.1948 82.1911 29.1948C82.4933 29.1948 82.7777 29.2933 82.991 29.4412C82.991 29.4412 82.991 29.4412 82.991 29.4577C83.0621 29.5069 83.1687 29.5069 83.222 29.4412L83.9864 28.7347V28.7183C84.0575 28.6525 84.0575 28.5539 83.9864 28.4882L83.9686 28.4718C83.4887 28.0939 82.8665 27.8474 82.1733 27.8474C80.6625 27.8474 79.436 28.9812 79.436 30.3942C79.436 31.7909 80.6625 32.941 82.1733 32.941C82.8665 32.941 83.4887 32.6946 83.9686 32.3166L83.9864 32.3002C84.0397 32.2509 84.0397 32.1359 83.9864 32.0702Z" fill="#0029A6"/>
<path fill-rule="evenodd" clip-rule="evenodd" d="M56.0968 29.9177C56.1145 29.6384 56.2212 29.4084 56.3989 29.2276C56.5767 29.0469 56.79 28.9483 57.0744 28.9483C57.2521 28.9483 57.3943 28.9811 57.5187 29.0304C57.6254 29.0797 57.7143 29.1455 57.7854 29.2276C57.8565 29.3098 57.892 29.4084 57.9276 29.5234C57.9631 29.6384 57.9809 29.7698 57.9809 29.9013H56.0968V29.9177ZM59.1896 30.6078C59.314 30.4928 59.3851 30.2792 59.3851 29.9506C59.3851 29.2769 59.1896 28.7675 58.7985 28.3896C58.4075 28.0282 57.8209 27.8474 57.0388 27.8474C56.6655 27.8474 56.31 27.9131 56.0257 28.0117C55.7235 28.1267 55.4569 28.2911 55.2436 28.5211C55.0303 28.7347 54.8525 29.014 54.7459 29.3262C54.6214 29.6384 54.5681 29.9999 54.5681 30.4107C54.5681 31.2815 54.7636 31.9059 55.1902 32.3166C55.5991 32.711 56.2567 32.9246 57.1277 32.9246C57.3943 32.9246 57.7143 32.8917 58.0342 32.826C58.3542 32.7603 58.6386 32.6617 58.8874 32.4974C58.9052 32.4974 58.9407 32.4645 58.9407 32.4645C58.994 32.4152 59.0118 32.3495 58.9763 32.2838L58.6563 31.643V31.6265C58.6385 31.6101 58.6386 31.5937 58.6208 31.5772C58.5852 31.5444 58.5319 31.5115 58.4608 31.528C58.443 31.528 58.4075 31.5444 58.3897 31.5444C58.212 31.6101 58.0164 31.6758 57.8209 31.7087C57.6254 31.758 57.4121 31.7744 57.2343 31.7744C57.0566 31.7744 56.9144 31.758 56.7722 31.7251C56.63 31.6923 56.5056 31.643 56.3989 31.5608C56.2923 31.4787 56.2034 31.3801 56.1501 31.2486C56.0968 31.1172 56.0434 30.9529 56.0434 30.7557H58.603C58.8696 30.7886 59.0474 30.7228 59.1896 30.6078Z" fill="#0029A6"/>
<path fill-rule="evenodd" clip-rule="evenodd" d="M63.8293 31.4452C63.616 31.6588 63.3494 31.7574 63.0117 31.7574C62.905 31.7574 62.7806 31.7574 62.6562 31.7409C62.514 31.7245 62.354 31.7081 62.1762 31.6588V29.1284C62.3007 29.0955 62.4251 29.0791 62.5851 29.0627C62.7273 29.0462 62.8517 29.0298 62.9583 29.0298C63.1361 29.0298 63.3138 29.0462 63.456 29.0955C63.616 29.1448 63.7404 29.2106 63.8471 29.3256C63.9537 29.4242 64.0248 29.572 64.0781 29.7363C64.1315 29.9007 64.1492 30.1143 64.1492 30.3772C64.1492 30.8865 64.0426 31.248 63.8293 31.4452ZM65.5357 29.4077C65.4468 29.0955 65.3046 28.8326 65.1091 28.619C64.9136 28.389 64.6469 28.2083 64.327 28.0768C64.007 27.9454 63.616 27.8796 63.1361 27.8796C62.7806 27.8796 62.4073 27.9125 61.9985 27.9618C61.6608 28.0111 61.3586 28.0932 61.0742 28.1918C61.0742 28.1918 61.0742 28.1918 61.0564 28.1918C60.8609 28.274 60.7009 28.4547 60.7009 28.6683V34.5342V34.5671C60.7187 34.5999 60.7187 34.6328 60.7543 34.6492C60.7898 34.6657 60.8076 34.6821 60.8254 34.6985C60.8431 34.6985 60.8965 34.6985 60.8965 34.6985H61.9452H61.9629H61.9807C62.0163 34.6985 62.0518 34.6821 62.0874 34.6492C62.1229 34.6164 62.1407 34.5835 62.1407 34.5342V34.5178V32.7761C62.354 32.8254 62.5495 32.8418 62.7273 32.8582C62.905 32.8747 63.0828 32.8911 63.2961 32.8911C63.6871 32.8911 64.0426 32.8254 64.3448 32.6939C64.6469 32.5625 64.878 32.3817 65.0735 32.1517C65.2691 31.9217 65.4113 31.6588 65.5001 31.3466C65.6068 31.0508 65.6423 30.7222 65.6423 30.3772C65.6601 30.0485 65.6246 29.7199 65.5357 29.4077Z" fill="#0029A6"/>
<path fill-rule="evenodd" clip-rule="evenodd" d="M15.5678 31.758C15.4967 31.7909 15.4256 31.8073 15.3545 31.8237C15.2657 31.8401 15.1946 31.8566 15.1235 31.8566C15.0346 31.873 14.9813 31.873 14.9102 31.873C14.8391 31.873 14.7857 31.873 14.7502 31.873C14.4836 31.873 14.2703 31.8237 14.1103 31.7416C13.9503 31.6594 13.8792 31.5115 13.8792 31.2979C13.8792 31.15 13.9148 31.035 13.9681 30.9529C14.0214 30.8707 14.1103 30.7886 14.1992 30.7557C14.288 30.7064 14.3769 30.69 14.5013 30.6735C14.608 30.6571 14.7146 30.6571 14.8035 30.6571H15.6034V31.758H15.5678ZM16.5099 28.2746C16.1722 27.9953 15.6389 27.8474 14.9102 27.8474C14.5724 27.8474 14.2525 27.8638 13.9325 27.9131C13.5948 27.9624 13.2927 28.0282 12.9905 28.1267H12.9727C12.9549 28.1432 12.9372 28.1432 12.9194 28.1596C12.8661 28.1925 12.8483 28.2582 12.8661 28.3075V28.3403L13.026 28.9812C13.0438 29.014 13.0438 29.0304 13.0794 29.0633C13.1149 29.0962 13.1682 29.1126 13.2393 29.1126H13.2571C13.2571 29.1126 13.2749 29.1126 13.2927 29.0962C13.3993 29.0797 13.4882 29.0469 13.6126 29.0304C13.7192 29.014 13.8614 28.9976 13.9681 28.9812C14.0925 28.9647 14.2169 28.9483 14.3414 28.9483C14.4658 28.9319 14.5724 28.9319 14.6969 28.9319C14.8746 28.9319 15.0346 28.9483 15.1412 28.9812C15.2479 29.014 15.3368 29.0633 15.4079 29.129C15.479 29.1948 15.5145 29.2605 15.5323 29.3426C15.5501 29.4248 15.5678 29.5069 15.5678 29.5891V29.737H14.4658C14.1103 29.737 13.7903 29.7698 13.5237 29.8684C13.2571 29.9506 13.0438 30.0656 12.8661 30.2135C12.7061 30.3614 12.5639 30.5421 12.475 30.7393C12.4039 30.9364 12.3506 31.1665 12.3506 31.3965C12.3506 31.6101 12.3861 31.8073 12.4572 32.0045C12.5283 32.1852 12.6528 32.3495 12.8305 32.4974C13.0083 32.6453 13.2571 32.7439 13.5415 32.826C13.8437 32.9082 14.2169 32.941 14.6613 32.941C14.8391 32.941 14.999 32.9246 15.1946 32.9246C15.3901 32.9082 15.5678 32.8917 15.7456 32.8753C15.9233 32.8589 16.1011 32.8096 16.2788 32.7767C16.4032 32.7439 16.5454 32.6946 16.6343 32.6617C16.8476 32.5795 16.972 32.3988 16.972 32.1852V29.5562C17.0254 28.9976 16.8476 28.5704 16.5099 28.2746Z" fill="#0029A6"/>
<path fill-rule="evenodd" clip-rule="evenodd" d="M53.8028 31.9719C53.8028 31.9226 53.785 31.8898 53.7494 31.8569L52.8785 31.0518C52.8074 30.9861 52.683 30.9861 52.6119 31.0518C52.2741 31.3311 51.8298 31.479 51.3143 31.479C50.7633 31.479 50.2478 31.2654 49.8745 30.9368C49.5013 30.6082 49.288 30.1317 49.288 29.6223C49.288 29.1129 49.519 28.6529 49.8745 28.3078C50.23 27.9628 50.7455 27.7492 51.3143 27.7492C51.812 27.7492 52.2564 27.9135 52.6119 28.1928C52.683 28.2585 52.8074 28.2585 52.8607 28.1928L53.7317 27.3877C53.7494 27.3548 53.785 27.3055 53.785 27.2727C53.785 27.2398 53.7672 27.1905 53.7317 27.1576C53.7317 27.1576 53.7317 27.1576 53.7139 27.1576C53.074 26.6318 52.2386 26.3032 51.3143 26.3032C50.3189 26.3032 49.4124 26.6811 48.7547 27.2891C48.0971 27.897 47.6882 28.7186 47.6882 29.6387C47.6882 30.5589 48.0971 31.3968 48.7369 31.9884C49.3946 32.5963 50.3011 32.9578 51.2787 32.9578C52.203 32.9578 53.0562 32.6292 53.6783 32.1034C53.6961 32.1034 53.6961 32.1034 53.6961 32.087C53.785 32.0541 53.8028 32.0048 53.8028 31.9719Z" fill="#0029A6"/>
<path fill-rule="evenodd" clip-rule="evenodd" d="M11.766 10.447C11.9793 10.447 12.157 10.3648 12.2815 10.2498L19.1959 3.85811C19.4803 3.59522 19.4803 3.16801 19.1959 2.88868C19.1781 2.88868 19.1603 2.87225 19.1603 2.85582C19.1603 2.85582 19.1425 2.85582 19.1425 2.83938C14.9121 -0.54542 8.61985 -0.54542 4.38944 2.83938C4.37166 2.85582 4.35389 2.87225 4.33611 2.87225C4.33611 2.87225 4.33611 2.88868 4.31834 2.88868C4.19392 3.0037 4.12282 3.15158 4.10504 3.29946C4.08727 3.49663 4.14059 3.6938 4.31834 3.84168L11.2327 10.2334C11.3749 10.3813 11.5527 10.447 11.766 10.447Z" fill="#D90008"/>
<path fill-rule="evenodd" clip-rule="evenodd" d="M11.766 11.8435C11.9793 11.8435 12.157 11.9257 12.2815 12.0407L19.1959 18.4324C19.4803 18.6953 19.4803 19.1225 19.1959 19.3854C19.1781 19.4018 19.1603 19.4018 19.1603 19.4182L19.1425 19.4347C14.9121 22.8195 8.61985 22.8195 4.38944 19.4511C4.37166 19.4347 4.35389 19.4182 4.33611 19.4182C4.33611 19.4018 4.33611 19.4018 4.31834 19.4018C4.19392 19.2868 4.12282 19.1389 4.10504 18.991C4.08727 18.7939 4.14059 18.5967 4.31834 18.4488L11.2327 12.0571C11.3749 11.9257 11.5527 11.8435 11.766 11.8435Z" fill="#0029A6"/>
<path fill-rule="evenodd" clip-rule="evenodd" d="M2.66827 17.4467C2.47275 17.4467 2.27722 17.3645 2.17058 17.2166C0.766365 15.4421 0.0375977 13.3389 0.0375977 11.1371C0.0375977 8.93539 0.78414 6.83221 2.17058 5.04122C2.3661 4.77832 2.75714 4.72903 3.04154 4.90977C3.32594 5.09052 3.37926 5.452 3.18374 5.71489C0.641941 8.95182 0.641941 13.306 3.18374 16.543C3.37926 16.8059 3.32594 17.1509 3.04154 17.3317C2.93489 17.4138 2.79269 17.4467 2.66827 17.4467Z" fill="#0029A6"/>
<path fill-rule="evenodd" clip-rule="evenodd" d="M20.8663 17.4467C20.7419 17.4467 20.6175 17.4138 20.5108 17.3317C20.2265 17.1509 20.1731 16.7894 20.3686 16.543C22.9104 13.306 22.9104 8.95182 20.3686 5.71489C20.1554 5.452 20.2265 5.09052 20.5108 4.90977C20.7775 4.72903 21.1685 4.77832 21.3818 5.04122C22.786 6.81578 23.5148 8.91895 23.5148 11.1371C23.5148 13.3389 22.786 15.4421 21.3818 17.2166C21.2396 17.381 21.0619 17.4467 20.8663 17.4467Z" fill="#D90008"/>
<path fill-rule="evenodd" clip-rule="evenodd" d="M84.9822 17.841C84.9822 17.6767 84.9111 17.5288 84.8044 17.3974C84.7866 17.3809 84.7866 17.3809 84.7689 17.3645L81.8716 14.7027C81.7472 14.5877 81.5694 14.5055 81.3739 14.5055C81.2139 14.5055 81.0717 14.5712 80.9473 14.6534C80.0763 15.3106 78.9743 15.705 77.7834 15.705C75.046 15.705 72.8242 13.6511 72.8242 11.1207C72.8242 8.59031 75.046 6.53643 77.7834 6.53643C78.9743 6.53643 80.0763 6.93078 80.9295 7.57159C80.9295 7.57159 80.9295 7.57159 80.9473 7.58802C81.0717 7.6866 81.2317 7.75233 81.3917 7.75233C81.6049 7.75233 81.7827 7.67017 81.9071 7.53873C82.1382 7.32512 83.9157 5.68202 84.8044 4.86046C84.8222 4.84403 84.8222 4.8276 84.84 4.8276C84.8577 4.81117 84.8755 4.77831 84.8933 4.76188L84.9111 4.74544C84.9644 4.64686 84.9999 4.54827 84.9999 4.41682C84.9999 4.23608 84.9288 4.07177 84.7866 3.95675C82.9381 2.3958 80.4851 1.45923 77.7834 1.45923C72.0066 1.45923 67.3318 5.7806 67.3318 11.1207C67.3318 16.4608 72.0066 20.7822 77.7834 20.7822C80.4674 20.7822 82.9203 19.8456 84.7689 18.3175C84.7689 18.3175 84.7689 18.3175 84.7866 18.3011C84.8933 18.2025 84.9822 18.0382 84.9822 17.841Z" fill="#D90008"/>
<path fill-rule="evenodd" clip-rule="evenodd" d="M64.5944 6.38842H59.333V19.8948C59.333 20.1248 59.2975 20.2891 59.2264 20.3713C59.1553 20.4534 58.942 20.5027 58.6043 20.5027H54.2317C53.7695 20.5027 53.5207 20.3055 53.5207 19.9112V6.38842H48.3837C47.9571 6.38842 47.7261 6.17481 47.7261 5.73117V2.54355C47.7261 2.23136 47.7794 2.03418 47.8683 1.96846C47.9571 1.90274 48.1349 1.86987 48.3837 1.86987H64.5944C64.8254 1.86987 65.0032 1.90274 65.0921 1.96846C65.1809 2.03418 65.2343 2.23136 65.2343 2.54355V5.73117C65.252 6.15838 65.021 6.38842 64.5944 6.38842Z" fill="#D90008"/>
<path fill-rule="evenodd" clip-rule="evenodd" d="M44.3649 2.52719C44.3649 2.14928 44.0449 1.85352 43.6361 1.85352C38.2859 1.85352 32.9357 1.85352 27.5855 1.85352C27.1944 1.85352 26.8567 2.14928 26.8567 2.52719V5.73125C26.8567 5.74768 26.8567 5.76411 26.8567 5.78054C26.8922 6.1256 27.2122 6.38849 27.5855 6.38849C27.6032 6.38849 27.6032 6.38849 27.621 6.38849H32.6513V19.8127V19.8291V19.8455C32.6513 19.862 32.6691 19.8948 32.6691 19.9113C32.7046 20.2235 32.9712 20.4535 33.309 20.4864C33.3445 20.4864 33.3623 20.4864 33.38 20.4864H37.7349C37.7527 20.4864 37.7526 20.4864 37.7704 20.4864H37.7882C38.1259 20.4699 38.4103 20.2235 38.4459 19.9113C38.4636 19.8948 38.4636 19.862 38.4636 19.8455V6.38849H43.6183C43.6361 6.38849 43.6361 6.38849 43.6361 6.38849C43.6539 6.38849 43.6539 6.38849 43.6717 6.38849H43.6894C43.7072 6.38849 43.7428 6.38849 43.7605 6.37206C44.0805 6.32277 44.3471 6.07631 44.3649 5.76412C44.3649 5.74768 44.3649 5.74768 44.3649 5.73125V2.52719Z" fill="#D90008"/>
</svg>
