<svg width="496" height="323" viewBox="0 0 496 323" fill="none" xmlns="http://www.w3.org/2000/svg">
<path d="M370.486 68.6726C443.674 120.898 444.386 83.7669 472.489 118.64C500.592 153.513 470.927 189.427 492.785 237.313C503.476 260.735 489.663 313.826 418.365 322.154C347.067 330.482 356.955 273.748 150.347 308.621C-56.2603 343.494 -11.6242 147.05 59.2734 128.53C129.01 110.312 59.4107 52.1086 124.847 17.6639C194.063 -18.7706 277.851 2.56952 370.486 68.6726Z" fill="#F9F9FC"/>
<path d="M91.1698 145.41C81.5237 148.687 71.5762 151.184 61.478 152.901C48.9682 155.086 32.6905 157.583 28.7718 157.583C28.7718 157.583 18.8243 158.831 14.152 149.779C14.152 149.779 10.5347 139.948 22.5923 139.791L33.4441 142.757C33.4441 142.757 22.8937 131.208 25.9081 123.093C28.9225 114.978 34.8006 108.423 50.4755 114.822C50.4755 114.822 54.5449 102.025 66.6025 104.834C78.8108 107.643 85.7439 114.666 85.7439 114.666C85.7439 114.666 89.5119 103.897 99.1579 107.175C108.804 110.452 111.818 119.972 111.818 119.972C111.818 119.972 117.696 112.325 125.082 117.943C125.082 117.943 134.728 131.52 123.122 134.954L91.1698 145.41Z" fill="#E2E7ED"/>
<path d="M143.771 211.892H225.461L213.554 180.524L169.996 175.218L152.664 193.477L143.771 211.892Z" fill="#25666C"/>
<path d="M247.466 112.949L239.629 151.184H333.829L335.939 223.129L227.119 223.441H224.406C223.652 201.904 206.47 184.581 185.37 184.581C164.419 184.581 147.237 201.748 146.333 223.441H133.522C133.522 221.88 132.618 200.032 135.783 180.992C138.646 163.513 158.843 154.305 163.364 152.433C163.967 152.277 164.269 152.12 164.269 152.12L172.408 140.728L218.377 111.388L247.466 112.949Z" fill="#477AA9"/>
<path d="M246.712 115.601L239.628 151.339H333.828L306.246 115.601H246.712Z" fill="#ABD2F5"/>
<path d="M345.584 211.892H433.001L399.24 178.495L371.659 175.218L354.326 193.477L345.584 211.892Z" fill="#17558D"/>
<path d="M314.535 107.331C314.535 107.331 337.143 112.168 376.481 151.184H334.581L306.245 115.602L314.535 107.331Z" fill="#ABD2F5"/>
<path d="M445.511 223.286H426.822C426.069 201.437 408.887 183.958 387.786 183.958C366.836 183.958 349.654 201.437 348.9 223.286H333.225V151.341C333.225 151.341 416.272 151.341 423.205 151.341C436.77 151.341 444.306 164.762 445.361 178.184L445.511 223.286Z" fill="#477AA9"/>
<path d="M432.768 181.288C434.856 180.428 435.027 175.771 433.15 170.886C431.273 166.001 428.058 162.739 425.97 163.599C423.882 164.459 423.711 169.117 425.588 174.001C427.465 178.886 430.68 182.149 432.768 181.288Z" fill="#ABD2F5"/>
<path d="M387.937 255.746C405.001 255.746 418.835 241.422 418.835 223.753C418.835 206.084 405.001 191.76 387.937 191.76C370.873 191.76 357.04 206.084 357.04 223.753C357.04 241.422 370.873 255.746 387.937 255.746Z" fill="#1D213A"/>
<path d="M387.936 243.417C398.424 243.417 406.926 234.613 406.926 223.753C406.926 212.893 398.424 204.089 387.936 204.089C377.447 204.089 368.945 212.893 368.945 223.753C368.945 234.613 377.447 243.417 387.936 243.417Z" fill="#ABD2F5"/>
<path d="M189.289 115.601C189.289 115.601 166.228 131.675 164.571 152.12H235.409L242.945 115.601H189.289Z" fill="#ABD2F5"/>
<path d="M184.917 255.746C201.981 255.746 215.815 241.422 215.815 223.753C215.815 206.084 201.981 191.76 184.917 191.76C167.853 191.76 154.02 206.084 154.02 223.753C154.02 241.422 167.853 255.746 184.917 255.746Z" fill="#1D213A"/>
<path d="M184.918 243.417C195.406 243.417 203.909 234.613 203.909 223.753C203.909 212.893 195.406 204.089 184.918 204.089C174.43 204.089 165.927 212.893 165.927 223.753C165.927 234.613 174.43 243.417 184.918 243.417Z" fill="#A9B8B5"/>
<path d="M335.939 151.339L306.247 114.041L302.781 115.602L333.226 153.368L335.939 151.339Z" fill="#477AA9"/>
<path d="M191.247 113.416C190.343 114.353 189.589 115.133 189.137 115.757H303.232C305.191 115.757 307 114.977 308.357 113.573L314.536 107.486H206.018C200.592 107.33 195.317 109.515 191.247 113.416Z" fill="#477AA9"/>
<path d="M239.629 151.34C239.629 151.34 229.38 159.144 229.079 166.947C228.777 174.906 229.079 223.597 229.079 223.597H332.171L331.568 151.184L239.629 151.34Z" fill="#2D679D"/>
<path d="M255.002 178.338H236.313V182.708H255.002V178.338Z" fill="#25666C"/>
<path d="M49.1188 208.927C49.1188 208.927 46.4059 213.14 46.5566 227.186H73.234L77.002 212.36V207.366L64.1908 203.153L49.1188 208.927Z" fill="#FCD9BE"/>
<path d="M397.131 229.06C388.54 220.944 362.917 200.5 319.962 197.535C319.962 197.535 284.844 175.686 222.447 174.126C222.447 174.126 185.068 175.218 129.151 182.397C129.151 182.397 76.2483 191.293 66.1501 194.882C56.0519 198.471 49.1188 208.928 49.1188 208.928L66.1501 212.049L65.0951 222.505L46.5566 227.187C46.5566 227.187 45.5015 237.643 46.5566 238.579C47.6116 239.672 69.0138 255.746 69.0138 255.746H377.085C377.085 255.746 392.458 249.192 398.336 237.331C399.994 234.522 399.392 231.089 397.131 229.06Z" fill="#FF212F"/>
<path d="M331.417 255.59L307.302 247.631L153.869 233.585L137.29 255.746L331.417 255.59Z" fill="#C01B22"/>
<path d="M311.22 197.066C299.916 191.916 264.949 177.246 227.27 176.934C225.913 177.09 167.584 180.992 157.637 183.333C157.486 183.333 157.336 183.489 157.185 183.645L149.046 192.384C148.594 193.008 148.895 193.789 149.649 193.789L310.768 198.627C311.823 198.783 312.125 197.378 311.22 197.066Z" fill="#FF808C"/>
<path d="M194.412 179.431L188.082 195.038L149.799 193.945C149.045 193.945 148.744 193.009 149.196 192.541L157.184 183.801C157.335 183.645 157.486 183.645 157.636 183.489C162.459 182.241 178.737 180.836 194.412 179.431Z" fill="#FF556E"/>
<path d="M377.387 247.63C377.387 250.439 377.085 253.248 376.482 255.745H308.206C307.603 253.092 307.302 250.439 307.302 247.63C307.302 227.654 322.977 211.424 342.269 211.424C361.561 211.424 377.387 227.498 377.387 247.63Z" fill="#FF808C"/>
<path d="M342.27 278.062C358.918 278.062 372.414 264.088 372.414 246.85C372.414 229.612 358.918 215.638 342.27 215.638C325.622 215.638 312.126 229.612 312.126 246.85C312.126 264.088 325.622 278.062 342.27 278.062Z" fill="#1E1111"/>
<path d="M342.269 272.912C356.171 272.912 367.44 261.244 367.44 246.85C367.44 232.456 356.171 220.787 342.269 220.787C328.368 220.787 317.099 232.456 317.099 246.85C317.099 261.244 328.368 272.912 342.269 272.912Z" fill="#474140"/>
<path d="M140.755 247.63C140.755 250.439 140.454 253.248 139.851 255.745H71.5751C70.9722 253.092 70.6708 250.439 70.6708 247.63C70.6708 227.654 86.3456 211.424 105.638 211.424C124.93 211.424 140.755 227.498 140.755 247.63Z" fill="#FF808C"/>
<path d="M105.64 278.062C122.288 278.062 135.784 264.088 135.784 246.85C135.784 229.612 122.288 215.638 105.64 215.638C88.9924 215.638 75.4965 229.612 75.4965 246.85C75.4965 264.088 88.9924 278.062 105.64 278.062Z" fill="#1E1111"/>
<path d="M105.639 272.912C119.54 272.912 130.81 261.244 130.81 246.85C130.81 232.456 119.54 220.787 105.639 220.787C91.7382 220.787 80.4691 232.456 80.4691 246.85C80.4691 261.244 91.7382 272.912 105.639 272.912Z" fill="#474140"/>
<path d="M205.865 184.581C205.865 188.171 204.057 191.448 201.494 191.136C199.083 190.824 197.124 188.171 197.124 184.581C197.124 180.992 199.083 178.027 201.494 178.027C203.906 178.027 205.865 180.836 205.865 184.581Z" fill="#EAD1BB"/>
<path d="M201.494 190.98V194.569L196.219 192.384C196.219 192.384 197.425 191.448 197.425 186.61" fill="#EAD1BB"/>
<path d="M201.494 194.257L204.358 194.101L204.81 188.795C204.81 188.795 203.755 191.292 201.343 191.136V194.257H201.494Z" fill="#323637"/>
<path d="M203.304 224.065C203.304 224.065 207.675 207.367 206.62 203.621C205.112 198.315 201.646 193.789 198.933 193.165C196.22 192.541 194.411 192.385 194.411 192.385C194.411 192.385 191.397 195.038 192.753 202.841C194.11 210.644 193.959 223.285 193.356 224.065H203.304Z" fill="#4F9599"/>
<path d="M204.51 179.899C204.51 179.899 204.058 174.749 199.386 174.593C194.713 174.437 191.699 179.743 191.699 184.113C191.699 188.483 191.699 193.165 191.699 193.165L196.221 192.852C196.221 192.852 197.577 190.98 197.728 186.454C197.878 181.928 201.044 179.743 201.797 179.587C201.797 179.587 203.907 183.333 205.716 183.957C205.867 183.801 206.017 182.084 204.51 179.899Z" fill="#323637"/>
<path d="M193.205 224.065C193.205 224.065 188.081 227.967 188.081 235.926C188.081 242.481 187.93 289.299 187.93 289.299H192.904L198.782 251.22L204.811 288.051H209.634C209.634 288.051 208.428 240.764 203.002 224.065H193.205Z" fill="#00226D"/>
<path d="M204.961 288.05V292.42C204.961 293.2 205.564 293.668 206.167 293.668H216.114C216.114 293.668 217.923 291.795 215.059 290.859C212.196 289.767 210.236 290.391 209.633 288.05H204.961Z" fill="#1E1E1E"/>
<path d="M188.231 289.299V293.669C188.231 294.449 188.834 294.917 189.437 294.917H199.384C199.384 294.917 201.193 293.044 198.329 292.108C195.466 291.016 193.506 291.64 192.904 289.299H188.231Z" fill="#1E1E1E"/>
<path d="M259.522 288.051V292.421C259.522 293.201 258.919 293.669 258.317 293.669H246.711C246.711 293.669 244.149 291.641 247.465 290.392C250.328 289.456 254.096 290.236 254.699 287.895H259.522V288.051Z" fill="#1E1E1E"/>
<path d="M277.457 288.05V292.42C277.457 293.2 276.855 293.668 276.252 293.668H264.646C264.646 293.668 262.687 291.483 266.003 290.235C268.866 289.142 271.881 290.391 272.634 288.05H277.457Z" fill="#1E1E1E"/>
<path d="M257.713 220.164L254.698 288.051H259.521L266.454 246.538L272.634 288.051H277.457L278.211 220.164H257.713Z" fill="#00226D"/>
<path d="M266.757 183.176C266.757 183.176 259.673 182.552 256.357 188.483C252.589 195.037 250.177 206.586 240.682 208.771L227.569 211.58L227.117 215.013C227.117 215.013 246.108 213.765 251.232 211.268C256.357 208.771 258.015 205.493 258.015 205.493L257.713 220.163L275.498 220.631L276.403 230.619H279.718C279.718 230.619 282.431 212.048 281.829 199.251C281.678 197.222 282.13 193.633 280.321 188.795C279.266 185.985 276.101 183.02 266.757 183.176Z" fill="#004444"/>
<path d="M272.333 174.749C272.333 178.027 269.621 180.68 266.908 180.68C264.195 180.68 263.14 177.09 263.14 173.813C263.14 170.535 264.647 168.819 267.36 168.819C270.223 168.819 272.333 171.472 272.333 174.749Z" fill="#EAD1BB"/>
<path d="M266.003 180.523C266.003 180.523 266.907 181.615 265.4 183.332C265.4 183.332 269.922 183.332 271.58 183.488C271.58 183.488 270.826 179.743 271.58 177.87C272.333 176.154 266.003 180.523 266.003 180.523Z" fill="#EAD1BB"/>
<path d="M272.032 176.935C272.333 176.311 272.333 175.686 272.333 175.062C272.333 173.657 271.579 172.565 270.524 171.941C269.168 171.16 267.058 170.536 264.043 170.692C264.043 170.692 259.22 169.756 259.974 166.166C259.974 166.166 260.577 163.981 264.345 166.166C264.345 166.166 267.359 167.415 270.072 167.415C271.881 167.415 273.84 170.068 273.991 171.941C274.443 175.686 272.032 176.935 272.032 176.935Z" fill="#323637"/>
<path d="M202.55 199.25C202.55 199.25 198.933 194.1 196.22 195.037C193.808 195.817 193.507 198.626 194.863 201.123C196.22 203.62 200.591 206.741 207.072 209.238C213.402 211.891 222.144 214.389 227.72 214.857C227.72 214.857 232.091 213.92 227.72 211.423C227.72 211.423 222.445 210.487 218.828 209.551C214.909 208.926 207.222 205.649 202.55 199.25Z" fill="#EAD1BB"/>
<path d="M276.402 230.619C276.402 230.619 275.498 233.272 275.799 234.208H280.321C280.321 234.208 280.472 232.179 279.718 230.619H276.402Z" fill="#BA9E8D"/>
<path d="M288.158 235.301H266.454V251.843H288.158V235.301Z" fill="#D6BA1A"/>
<path d="M286.652 234.209H267.812V242.324H286.652V234.209Z" fill="#BD812E"/>
<path d="M281.074 241.544H273.99V243.417H281.074V241.544Z" fill="#A05904"/>
<path d="M259.524 99.8396C259.524 99.8396 258.318 98.5913 256.208 96.7188" stroke="#FF212F" stroke-width="2" stroke-miterlimit="2.3662"/>
<path d="M248.973 90.9443C230.886 77.8351 190.945 57.547 141.208 83.4533C136.536 85.7943 133.22 90.164 132.315 95.314C131.713 98.7474 133.672 104.678 138.043 106.238C149.648 110.14 155.074 102.649 155.828 95.4701C156.581 87.511 140.304 73.7775 113.174 87.9791C88.3053 100.932 73.2333 135.11 79.4128 168.507" stroke="#FF212F" stroke-width="2" stroke-miterlimit="2.3662" stroke-dasharray="6.07 6.07"/>
<path d="M80.4679 173.033C80.7693 174.593 81.2215 175.998 81.6736 177.559" stroke="#FF212F" stroke-width="2" stroke-miterlimit="2.3662"/>
<path d="M75.4948 171.785L81.8249 179.276L84.6886 170.224L75.4948 171.785Z" fill="#FF212F"/>
<path d="M458.556 94.58C458.556 94.58 422.722 98.6724 389.617 94.9359C359.414 91.5552 323.409 80.8795 310.611 65.3997C304.98 58.6384 304.98 48.3186 310.781 41.5573C315.901 35.6856 326.31 32.305 346.787 48.1406C346.787 48.1406 363.168 15.0459 416.237 30.7036C424.087 33.0167 431.424 37.4649 436.885 43.8703C440.98 48.6744 443.881 54.1902 441.151 58.6384C441.151 58.6384 453.096 51.6992 465.894 53.8344C475.961 55.4357 483.64 64.5101 482.958 75.1858C482.446 82.8367 477.327 91.5552 458.556 94.58Z" fill="#E2E7ED"/>
</svg>
